HIERARCHY
ROOT Hips
{
  OFFSET 5.84602e-005 68.8428 3.50346
  CHANNELS 6 Xposition Yposition Zposition Zrotation Xrotation Yrotation
  JOINT Spine
  {
    OFFSET 0 8.597 -4.6522
    CHANNELS 3 Zrotation Xrotation Yrotation
    JOINT Spine1
    {
      OFFSET 0 7.8454 0.4098
      CHANNELS 3 Zrotation Xrotation Yrotation
      JOINT Spine2
      {
        OFFSET 0 9.7078 -2.1609
        CHANNELS 3 Zrotation Xrotation Yrotation
        JOINT Neck
        {
          OFFSET 0 21.8761 -0.4549
          CHANNELS 3 Zrotation Xrotation Yrotation
          JOINT Head
          {
            OFFSET 0 12.3537 3.3602
            CHANNELS 3 Zrotation Xrotation Yrotation
            End Site
            {
              OFFSET 0.0001 18.9506 0.5657
            }
          }
        }
        JOINT LeftShoulder
        {
          OFFSET 2.2086 21.1115 7.2329
          CHANNELS 3 Zrotation Xrotation Yrotation
          JOINT LeftArm
          {
            OFFSET 13.1193 3.0282 -4.8998
            CHANNELS 3 Zrotation Xrotation Yrotation
            JOINT LeftForeArm
            {
              OFFSET 27.4081 -0.0973053 -0.2375
              CHANNELS 3 Zrotation Xrotation Yrotation
              JOINT LeftHand
              {
                OFFSET 22.8641 0.0662994 -0.1369
                CHANNELS 3 Zrotation Xrotation Yrotation
                JOINT LeftHandIndex1
                {
                  OFFSET 8.8614 0.775009 2.4612
                  CHANNELS 3 Zrotation Xrotation Yrotation
                  JOINT LeftHandIndex2
                  {
                    OFFSET 3.3146 -0.808304 0.5841
                    CHANNELS 3 Zrotation Xrotation Yrotation
                    JOINT LeftHandIndex3
                    {
                      OFFSET 2.2628 -0.552002 0.3989
                      CHANNELS 3 Zrotation Xrotation Yrotation
                      End Site
                      {
                        OFFSET 1.6102 -0.4807 0.2612
                      }
                    }
                  }
                }
                JOINT LeftHandMiddle1
                {
                  OFFSET 8.9937 0.895004 0.2143
                  CHANNELS 3 Zrotation Xrotation Yrotation
                  JOINT LeftHandMiddle2
                  {
                    OFFSET 4.0984 0.0113983 -0.0242
                    CHANNELS 3 Zrotation Xrotation Yrotation
                    JOINT LeftHandMiddle3
                    {
                      OFFSET 2.2716 0.00689697 -0.0138001
                      CHANNELS 3 Zrotation Xrotation Yrotation
                      End Site
                      {
                        OFFSET 2.0404 -0.1441 0.0027
                      }
                    }
                  }
                }
                JOINT LeftHandRing1
                {
                  OFFSET 8.5234 0.597198 -2.0164
                  CHANNELS 3 Zrotation Xrotation Yrotation
                  JOINT LeftHandRing2
                  {
                    OFFSET 3.7188 -0.188293 -0.2328
                    CHANNELS 3 Zrotation Xrotation Yrotation
                    JOINT LeftHandRing3
                    {
                      OFFSET 2.1191 -0.106598 -0.1332
                      CHANNELS 3 Zrotation Xrotation Yrotation
                      End Site
                      {
                        OFFSET 1.8737 -0.2304 -0.0886
                      }
                    }
                  }
                }
                JOINT LeftHandPinky1
                {
                  OFFSET 7.9094 -0.601089 -3.4825
                  CHANNELS 3 Zrotation Xrotation Yrotation
                  JOINT LeftHandPinky2
                  {
                    OFFSET 2.2874 -0.477005 -0.6314
                    CHANNELS 3 Zrotation Xrotation Yrotation
                    JOINT LeftHandPinky3
                    {
                      OFFSET 1.6774 -0.349396 -0.4633
                      CHANNELS 3 Zrotation Xrotation Yrotation
                      End Site
                      {
                        OFFSET 1.4888 -0.4091 -0.3416
                      }
                    }
                  }
                }
                JOINT LeftHandThumb1
                {
                  OFFSET 1.833 -1.3875 1.3896
                  CHANNELS 3 Zrotation Xrotation Yrotation
                  JOINT LeftHandThumb2
                  {
                    OFFSET 3.4129 -1.121 2.5732
                    CHANNELS 3 Zrotation Xrotation Yrotation
                    JOINT LeftHandThumb3
                    {
                      OFFSET 2.2474 -0.804199 1.6192
                      CHANNELS 3 Zrotation Xrotation Yrotation
                      End Site
                      {
                        OFFSET 1.6527 -0.5689 1.1317
                      }
                    }
                  }
                }
              }
            }
          }
        }
        JOINT RightShoulder
        {
          OFFSET -2.2086 21.1115 7.2329
          CHANNELS 3 Zrotation Xrotation Yrotation
          JOINT RightArm
          {
            OFFSET -13.1216 3.0287 -4.9007
            CHANNELS 3 Zrotation Xrotation Yrotation
            JOINT RightForeArm
            {
              OFFSET -27.4081 -0.0973053 -0.2375
              CHANNELS 3 Zrotation Xrotation Yrotation
              JOINT RightHand
              {
                OFFSET -22.8641 0.0664063 -0.1369
                CHANNELS 3 Zrotation Xrotation Yrotation
                JOINT RightHandIndex1
                {
                  OFFSET -8.8614 0.774994 2.4612
                  CHANNELS 3 Zrotation Xrotation Yrotation
                  JOINT RightHandIndex2
                  {
                    OFFSET -3.3146 -0.808304 0.5841
                    CHANNELS 3 Zrotation Xrotation Yrotation
                    JOINT RightHandIndex3
                    {
                      OFFSET -2.2628 -0.552002 0.3989
                      CHANNELS 3 Zrotation Xrotation Yrotation
                      End Site
                      {
                        OFFSET -1.6102 -0.4807 0.2612
                      }
                    }
                  }
                }
                JOINT RightHandMiddle1
                {
                  OFFSET -8.9937 0.894989 0.2143
                  CHANNELS 3 Zrotation Xrotation Yrotation
                  JOINT RightHandMiddle2
                  {
                    OFFSET -4.0984 0.0113983 -0.0242
                    CHANNELS 3 Zrotation Xrotation Yrotation
                    JOINT RightHandMiddle3
                    {
                      OFFSET -2.2716 0.00691223 -0.0138001
                      CHANNELS 3 Zrotation Xrotation Yrotation
                      End Site
                      {
                        OFFSET -2.0404 -0.1441 0.0027
                      }
                    }
                  }
                }
                JOINT RightHandRing1
                {
                  OFFSET -8.5234 0.597198 -2.0164
                  CHANNELS 3 Zrotation Xrotation Yrotation
                  JOINT RightHandRing2
                  {
                    OFFSET -3.7188 -0.188309 -0.2328
                    CHANNELS 3 Zrotation Xrotation Yrotation
                    JOINT RightHandRing3
                    {
                      OFFSET -2.1191 -0.106598 -0.1332
                      CHANNELS 3 Zrotation Xrotation Yrotation
                      End Site
                      {
                        OFFSET -1.8737 -0.2304 -0.0886
                      }
                    }
                  }
                }
                JOINT RightHandPinky1
                {
                  OFFSET -7.9094 -0.601105 -3.4825
                  CHANNELS 3 Zrotation Xrotation Yrotation
                  JOINT RightHandPinky2
                  {
                    OFFSET -2.2874 -0.477005 -0.6314
                    CHANNELS 3 Zrotation Xrotation Yrotation
                    JOINT RightHandPinky3
                    {
                      OFFSET -1.6774 -0.349396 -0.4633
                      CHANNELS 3 Zrotation Xrotation Yrotation
                      End Site
                      {
                        OFFSET -1.4888 -0.4091 -0.3416
                      }
                    }
                  }
                }
                JOINT RightHandThumb1
                {
                  OFFSET -1.833 -1.38751 1.3896
                  CHANNELS 3 Zrotation Xrotation Yrotation
                  JOINT RightHandThumb2
                  {
                    OFFSET -3.41299 -1.12099 2.5732
                    CHANNELS 3 Zrotation Xrotation Yrotation
                    JOINT RightHandThumb3
                    {
                      OFFSET -2.24741 -0.804108 1.6192
                      CHANNELS 3 Zrotation Xrotation Yrotation
                      End Site
                      {
                        OFFSET -1.6527 -0.5689 1.1317
                      }
                    }
                  }
                }
              }
            }
          }
        }
      }
    }
  }
  JOINT RightUpLeg
  {
    OFFSET -9.1966 3.8861 -0.7581
    CHANNELS 3 Zrotation Xrotation Yrotation
    JOINT RightLeg
    {
      OFFSET -0.7359 -41.0265 0
      CHANNELS 3 Zrotation Xrotation Yrotation
      JOINT RightFoot
      {
        OFFSET 0 -40.2855 0
        CHANNELS 3 Zrotation Xrotation Yrotation
        JOINT RightToeBase
        {
          OFFSET 0 -5.6122 11.7359
          CHANNELS 3 Zrotation Xrotation Yrotation
          End Site
          {
            OFFSET 0 0 7.8731
          }
        }
      }
    }
  }
  JOINT LeftUpLeg
  {
    OFFSET 9.1965 3.8864 -0.7581
    CHANNELS 3 Zrotation Xrotation Yrotation
    JOINT LeftLeg
    {
      OFFSET 0.7359 -41.0268 0
      CHANNELS 3 Zrotation Xrotation Yrotation
      JOINT LeftFoot
      {
        OFFSET 0 -40.2855 0
        CHANNELS 3 Zrotation Xrotation Yrotation
        JOINT LeftToeBase
        {
          OFFSET 0 -5.6122 11.7359
          CHANNELS 3 Zrotation Xrotation Yrotation
          End Site
          {
            OFFSET 0 0 7.8731
          }
        }
      }
    }
  }
}
MOTION
Frames:	4
Frame Time:	0.0333333
5.84602e-005 68.8428 3.50346 0 0 -0 0 0 -0 0 0 -0 0 0 -0 0 0 -0 0 0 -0 0 0 -0 0 0 -0 0 0 -0 0 0 -0 0 0 -0 0 0 -0 0 0 -0 0 0 -0 -0.0146107 -8.87603e-005 -2.63497e-007 2.99804e-018 -2.42657e-020 -1.42182e-022 0 0 -0 -0.0187562 -0.001176 5.858e-005 5.06224e-018 3.88251e-019 1.21329e-020 0 0 -0 -0.012269 -0.00324817 0.000675346 -1.74678e-018 3.88251e-019 -0 0 0 -0 0 0 -0 0 0 -0 0 0 -0 0 0 -0 0 0 -0 0 0 -0 0 0 -0 0 0 -0 0 0 -0 0 0 -0 0.0149955 -9.10982e-005 2.64101e-007 -9.69331e-018 1.21329e-020 -4.7394e-023 0 0 -0 0.0189956 -0.00119102 -5.96516e-005 -5.41541e-019 0 2.42657e-020 0 0 -0 0.0122698 -0.00324857 -0.000673756 -2.00796e-019 0 -1.94126e-019 0 0 -0 0 0 -0 0 0 -0 3.39842 1.33031 -0.0637918 -5.65207e-008 0.834868 -0.000436188 -3.39935 -2.16518 -0.0642563 -8.89002e-024 -1.18485e-023 -1.48106e-024 -3.39844 1.35642 0.0640283 -3.18788e-007 0.782166 -0.000588827 3.39931 -2.13858 0.0634662 1.1399e-023 0 -0 
1.66398 23.1417 25.8293 -0.000446941 -23.0014 179.999 0.0153994 4.38955 -0.0486557 0.0347038 8.7791 -0.0989364 0.0347038 8.7791 -0.0989364 3.54619e-007 -0.210643 -2.05429e-007 -0.0646943 -0.487848 -0.000271789 -33.0425 -14.1589 -1.67542 -23.9043 -3.21336 -38.1726 -42.993 44.015 -30.0892 56.791 -5.29614 -30.8952 -3.18055e-015 1.23122e-014 4.96962e-016 9.1123e-032 1.50082e-014 -3.47873e-016 3.02594e-031 1.45361e-014 -1.19271e-015 -3.18055e-015 1.23122e-014 4.96962e-016 -0.0146195 -8.7221e-005 -1.96578e-006 -1.59028e-015 4.46023e-015 2.48481e-016 -3.18055e-015 1.23122e-014 4.96962e-016 -0.0187505 -0.00117615 5.59396e-005 -2.53067e-031 -5.11871e-015 -2.83268e-015 -3.18055e-015 1.23122e-014 4.96962e-016 -0.0122506 -0.0032407 0.000678269 1.59028e-015 5.80203e-015 -0 -3.18055e-015 1.23122e-014 4.96962e-016 9.1123e-032 1.50082e-014 -3.47873e-016 3.02594e-031 1.45361e-014 -1.19271e-015 29.8979 -17.6543 -0.638922 24.2629 -3.68572 40.4387 45.9536 45.086 37.8224 -47.1629 -41.5018 -13.1776 -4.96962e-016 -3.97569e-016 -3.18055e-015 -4.96962e-016 -1.88845e-015 -0 -1.98785e-016 -9.93923e-016 -0 -4.96962e-016 -3.97569e-016 -3.18055e-015 0.0149873 -9.04613e-005 7.98277e-006 -3.97569e-016 5.96354e-016 -0 -4.96962e-016 -3.97569e-016 -3.18055e-015 0.0190151 -0.00119163 -5.93574e-005 -4.96962e-016 0 -3.18055e-015 -4.96962e-016 -3.97569e-016 -3.18055e-015 0.0122663 -0.00324325 -0.000677749 8.44835e-015 -1.03368e-014 -6.36111e-015 -4.96962e-016 -3.97569e-016 -3.18055e-015 -4.96962e-016 -1.88845e-015 -0 -1.98785e-016 -9.93923e-016 -0 -11.4389 -44.07 -27.7204 -173.327 61.4467 169.742 17.2989 37.5735 -28.4487 -4.77083e-015 -3.18055e-015 -0 13.503 -45.011 24.8992 172.94 60.8381 -169.224 -18.6872 39.4937 25.0922 1.39347e-007 -1.08073e-007 3.88517e-007 
1.66394 23.1646 25.5075 -0.000380118 -21.8901 179.999 0.0145219 4.26843 -0.0488107 0.0328394 8.53689 -0.0991243 0.0328394 8.53687 -0.0991243 6.09595e-008 -0.420272 -2.84308e-007 -0.123803 -0.966115 -0.0221935 -32.4286 -12.0183 -2.35787 -23.9043 -3.21337 -38.1726 -42.3323 43.7204 -29.5776 57.1537 -6.88341 -29.963 -1.59028e-015 -5.08765e-015 -2.18663e-015 -3.18055e-015 -5.24605e-015 -1.39149e-015 -1.59028e-015 -5.40446e-015 -3.00662e-015 -1.59028e-015 -5.08765e-015 -2.18663e-015 -0.014605 -9.27012e-005 1.31103e-006 1.59028e-015 -1.47784e-014 -1.963e-015 -1.59028e-015 -5.08765e-015 -2.18663e-015 -0.018773 -0.00117768 5.99326e-005 1.59028e-015 -7.79609e-016 -1.3418e-015 -1.59028e-015 -5.08765e-015 -2.18663e-015 -0.0122754 -0.0032457 0.00067739 -1.59028e-015 4.27387e-015 9.69075e-016 -1.59028e-015 -5.08765e-015 -2.18663e-015 -3.18055e-015 -5.24605e-015 -1.39149e-015 -1.59028e-015 -5.40446e-015 -3.00662e-015 29.4553 -15.6211 -0.101919 24.2629 -3.68573 40.4387 45.0595 44.5352 37.278 -47.401 -43.157 -13.2959 1.78906e-015 -1.98785e-016 3.18055e-015 -1.19271e-015 -1.98785e-016 -9.54166e-015 -1.78906e-015 -3.97569e-016 -6.36111e-015 1.78906e-015 -1.98785e-016 3.18055e-015 0.0149866 -9.37183e-005 2.83025e-006 -3.71279e-007 6.20693e-007 6.13452e-007 1.78906e-015 -1.98785e-016 3.18055e-015 0.0189975 -0.00118689 -6.2063e-005 7.25564e-015 -8.24956e-015 -3.18055e-015 1.78906e-015 -1.98785e-016 3.18055e-015 0.0122676 -0.00324631 -0.000680391 9.54166e-015 -8.74653e-015 6.36111e-015 1.78906e-015 -1.98785e-016 3.18055e-015 -1.19271e-015 -1.98785e-016 -9.54166e-015 -1.78906e-015 -3.97569e-016 -6.36111e-015 -10.9991 -42.6724 -27.134 -173.278 61.7604 169.715 17.2864 37.5731 -28.4288 1.59028e-015 0 -1.59028e-015 13.0758 -43.6027 24.3216 172.892 61.1506 -169.198 -18.6735 39.494 25.0717 7.33837e-007 1.02407e-006 1.46035e-006 
1.6639 23.1905 25.1863 -0.000359033 -20.7822 179.999 0.0136732 4.14695 -0.0488723 0.0310264 8.2939 -0.0991311 0.0310264 8.2939 -0.0991311 2.4001e-008 -0.629312 2.93517e-007 -0.183188 -1.44504 -0.0446448 -31.7887 -9.87002 -3.0637 -23.9043 -3.21335 -38.1726 -41.6702 43.4298 -29.063 57.5452 -8.47045 -29.0137 1.59028e-015 4.63106e-015 1.47846e-015 -1.20925e-031 4.62796e-015 1.4971e-015 1.59028e-015 1.60425e-015 -8.44835e-016 1.59028e-015 4.63106e-015 1.47846e-015 -0.0146198 -9.23276e-005 -3.37696e-006 2.31378e-031 1.5808e-014 -8.38623e-016 1.59028e-015 4.63106e-015 1.47846e-015 -0.0187681 -0.00117407 6.15769e-005 1.59028e-015 -6.97299e-015 2.42269e-016 1.59028e-015 4.63106e-015 1.47846e-015 -0.01227 -0.00324786 0.000681212 1.59028e-015 -8.23093e-015 6.7711e-016 1.59028e-015 4.63106e-015 1.47846e-015 -1.20925e-031 4.62796e-015 1.4971e-015 1.59028e-015 1.60425e-015 -8.44835e-016 28.9943 -13.5799 0.449619 24.2629 -3.68573 40.4387 44.165 43.9895 36.7259 -47.6515 -44.8175 -13.4277 -3.98036e-007 6.68129e-007 6.12853e-007 -1.59028e-015 -7.95139e-016 6.36111e-015 -1.39149e-015 7.95139e-016 1.27222e-014 -3.98036e-007 6.68129e-007 6.12853e-007 0.0150147 -8.77317e-005 1.01982e-006 1.78906e-015 0 6.36111e-015 -3.98036e-007 6.68129e-007 6.12853e-007 0.0189895 -0.0011848 -6.43374e-005 3.97569e-016 1.39149e-015 -9.54166e-015 -3.98036e-007 6.68129e-007 6.12853e-007 0.0122498 -0.00324672 -0.000673426 -1.39149e-015 -3.97569e-016 -6.36111e-015 -3.98036e-007 6.68129e-007 6.12853e-007 -1.59028e-015 -7.95139e-016 6.36111e-015 -1.39149e-015 7.95139e-016 1.27222e-014 -10.5853 -41.2685 -26.5727 -173.229 62.074 169.686 17.2739 37.5727 -28.409 -6.14721e-007 4.13756e-006 -2.31054e-006 12.6761 -42.1865 23.77 172.841 61.464 -169.17 -18.6599 39.4942 25.0512 -2.49431e-007 7.83454e-006 1.04097e-006 
